<svg width="282" height="78" viewBox="0 0 282 78" fill="none" xmlns="http://www.w3.org/2000/svg">
<path d="M4.12439 74.4089C3.50251 74.9562 3.44208 75.904 3.98941 76.5259C4.53673 77.1478 5.48456 77.2082 6.10643 76.6609L4.12439 74.4089ZM5.11541 75.5349C6.10643 76.6609 6.1064 76.6609 6.10685 76.6605C6.10765 76.6598 6.10858 76.659 6.11016 76.6576C6.11333 76.6548 6.11842 76.6503 6.12543 76.6442C6.13945 76.632 6.16112 76.6131 6.19042 76.5877C6.249 76.5369 6.33804 76.4601 6.45713 76.3584C6.69531 76.1549 7.05371 75.852 7.52912 75.4588C8.47997 74.6722 9.8988 73.5244 11.7601 72.0885C15.483 69.2166 20.9747 65.1936 28.0315 60.6052C42.1478 51.4267 62.5112 39.9959 87.4928 30.9886C137.441 12.9794 205.804 4.66692 279.693 43.3673L281.085 40.7098C206.259 1.5191 136.985 9.95476 86.4753 28.1665C61.2279 37.2696 40.657 48.8176 26.3962 58.0901C19.2644 62.7272 13.707 66.7978 9.92773 69.7131C8.03801 71.1709 6.59258 72.3401 5.61693 73.1471C5.1291 73.5507 4.75868 73.8637 4.50887 74.0771C4.38396 74.1837 4.28921 74.2655 4.22499 74.3212C4.19289 74.349 4.16842 74.3703 4.15163 74.385C4.14324 74.3923 4.13677 74.398 4.13223 74.402C4.12996 74.404 4.12799 74.4057 4.12686 74.4067C4.12538 74.408 4.12439 74.4089 5.11541 75.5349Z" fill="#6D55D2" fill-opacity="0.6"/>
<path d="M4.34191 64.7209C3.62182 65.1305 3.37011 66.0463 3.7797 66.7663C4.18928 67.4864 5.10507 67.7381 5.82516 67.3286L4.34191 64.7209ZM272.17 47.7649L273.566 48.3115L274.66 45.5177L273.263 44.9711L272.17 47.7649ZM5.08353 66.0247C5.82516 67.3286 5.82516 67.3286 5.82565 67.3283C5.82648 67.3278 5.82746 67.3272 5.82911 67.3263C5.83239 67.3245 5.83764 67.3215 5.84486 67.3174C5.85929 67.3093 5.88155 67.2967 5.9116 67.2799C5.97171 67.2462 6.06294 67.1952 6.18485 67.1279C6.42866 66.9932 6.79514 66.7927 7.28061 66.5325C8.25156 66.0122 9.69836 65.2534 11.5915 64.3052C15.3779 62.4087 20.9489 59.7548 28.0685 56.7363C42.3091 50.6987 62.7359 43.206 87.4612 37.3952C136.921 25.7714 203.499 20.8951 272.17 47.7649L273.263 44.9711C203.849 17.8105 136.61 22.7626 86.7749 34.4747C61.8526 40.3319 41.2622 47.8841 26.8975 53.9743C19.7143 57.0198 14.0856 59.7006 10.248 61.6228C8.32909 62.584 6.8578 63.3555 5.86364 63.8882C5.36656 64.1546 4.98875 64.3613 4.7339 64.5021C4.60648 64.5725 4.50979 64.6265 4.4443 64.6632C4.41156 64.6815 4.38662 64.6956 4.36953 64.7052C4.36099 64.7101 4.35441 64.7138 4.3498 64.7164C4.3475 64.7177 4.34553 64.7188 4.34437 64.7195C4.34289 64.7203 4.34191 64.7209 5.08353 66.0247Z" fill="#9F8AF4" fill-opacity="0.6"/>
</svg>
