<svg xmlns="http://www.w3.org/2000/svg" width="200" height="200" viewBox="0 0 200 200" fill="none">
<circle cx="100" cy="100" r="100" fill="#B3A4EF" fill-opacity="0.7"/>
<path d="M122.861 42.4115C117.014 36.1273 108.847 32.6667 99.833 32.6667C90.7708 32.6667 82.5769 36.1064 76.7567 42.3517C70.8735 48.6658 68.007 57.2471 68.68 66.5134C70.0141 84.7947 83.9891 99.6663 99.833 99.6663C115.677 99.6663 129.628 84.7977 130.983 66.5194C131.665 57.3369 128.781 48.7735 122.861 42.4115ZM152.716 166.666H46.9498C45.5655 166.684 44.1945 166.394 42.9366 165.818C41.6788 165.243 40.5657 164.395 39.6784 163.337C37.7253 161.013 36.9381 157.839 37.521 154.63C40.057 140.626 47.9715 128.862 60.411 120.604C71.4624 113.273 85.4614 109.238 99.833 109.238C114.205 109.238 128.204 113.276 139.255 120.604C151.695 128.859 159.609 140.623 162.145 154.627C162.728 157.836 161.941 161.01 159.988 163.334C159.101 164.392 157.988 165.241 156.73 165.817C155.472 166.393 154.101 166.683 152.716 166.666Z" fill="#26224A"/>
</svg>