<svg width="668" height="668" viewBox="0 0 668 668" fill="none" xmlns="http://www.w3.org/2000/svg">
<path fill-rule="evenodd" clip-rule="evenodd" d="M333.999 0.666748C517.765 0.666748 667.333 150.234 667.333 334C667.333 517.766 517.765 667.333 333.999 667.333C150.233 667.333 0.666016 517.766 0.666016 334C0.666016 150.234 150.233 0.666748 333.999 0.666748ZM333.999 67.3334C186.408 67.3334 67.3327 186.408 67.3327 334C67.3327 481.592 186.408 600.667 333.999 600.667C481.591 600.667 600.666 481.592 600.666 334C600.666 186.408 481.591 67.3334 333.999 67.3334ZM333.999 425.733C357.809 425.733 375.666 443.333 375.666 467.333C375.666 491.333 357.809 508.933 333.999 508.933C309.649 508.933 292.333 491.333 292.333 466.8C292.333 443.333 310.19 425.733 333.999 425.733ZM367.333 134V367.333H300.666V134H367.333Z" fill="#B3A4EF"/>
</svg>
