<svg width="42" height="42" viewBox="0 0 42 42" fill="none" xmlns="http://www.w3.org/2000/svg">
<path d="M19.6329 3.06268H5.14064C4.04247 3.06268 2.98928 3.49893 2.21276 4.27545C1.43624 5.05197 1 6.10515 1 7.20332V36.1878C1 37.2859 1.43624 38.3391 2.21276 39.1156C2.98928 39.8922 4.04247 40.3284 5.14064 40.3284H34.1251C35.2233 40.3284 36.2764 39.8922 37.053 39.1156C37.8295 38.3391 38.2657 37.2859 38.2657 36.1878V21.6955" stroke="#B3A4EF" stroke-width="2" stroke-linecap="round" stroke-linejoin="round"/>
<path d="M32.8321 2.28633C33.6557 1.46271 34.7728 1 35.9376 1C37.1023 1 38.2194 1.46271 39.043 2.28633C39.8667 3.10995 40.3294 4.22703 40.3294 5.39181C40.3294 6.55659 39.8667 7.67366 39.043 8.49729L19.6338 27.9065L11.3525 29.9768L13.4229 21.6956L32.8321 2.28633Z" stroke="#B3A4EF" stroke-width="2" stroke-linecap="round" stroke-linejoin="round"/>
</svg>
