<svg width="800" height="800" viewBox="0 0 800 800" fill="none" xmlns="http://www.w3.org/2000/svg">
<path d="M752.285 0.872968C728.306 -4.72605 680.691 17.2147 645.957 49.917L470.145 215.388C463.215 221.945 450.346 224.438 441.45 220.987L120.777 96.7408C111.874 93.3054 98.544 95.2241 91.0106 101.093L27.7728 150.118C20.2394 155.972 20.7826 164.648 29.0037 169.506L324.455 344.077C332.663 348.92 332.242 355.963 323.899 360.601C291.818 378.394 229.846 436.284 156.104 539.886C150.565 547.655 140.444 554.215 130.976 553.018L57.1401 543.522C47.6724 542.32 34.989 547.215 28.8185 554.482L4.08921 583.592C-2.08761 590.858 -0.140668 600.137 8.44156 604.317L74.3705 636.322C82.9591 640.483 86.4698 650.817 83.4772 659.89C80.3118 669.489 77.1622 682.399 77.0868 695.986C77.0272 705.526 86.3913 715.082 95.9219 715.522C109.17 716.137 128.266 714.41 146.454 703.344C154.603 698.36 163.412 699.871 167.462 708.503L206.389 791.763C210.443 800.411 219.779 802.606 227.265 796.671L244.508 783.027C251.997 777.105 257.461 764.591 256.723 755.063L250.135 669.417C249.403 659.921 255.492 648.312 263.613 643.287C300.956 620.203 399.176 555.81 443.02 491.426C448.399 483.525 456.181 483.249 461.252 491.326L633.179 765.062C638.251 773.151 647.763 774.137 654.401 767.291L689.459 731.119C696.11 724.261 699.058 711.395 696.04 702.336L583.187 363.716C580.169 354.682 582.939 341.622 589.389 334.597L744.726 165.245C776.97 130.077 801.458 81.3318 799.404 56.3293C797.363 31.3049 776.261 6.48455 752.285 0.872968Z" fill="#B3A4EF"/>
</svg>
