<svg width="668" height="668" viewBox="0 0 668 668" fill="none" xmlns="http://www.w3.org/2000/svg">
<path fill-rule="evenodd" clip-rule="evenodd" d="M433.999 0L467.333 33.3333L467.332 100H667.333V566.667H0.666016V100H200.666V33.3333L233.999 0H433.999ZM67.3324 345.211L67.3327 500H600.666L600.667 345.211C534.065 364.266 467.387 376.186 400.667 380.952L400.666 433.333H267.333L267.332 380.952C200.612 376.186 133.934 364.266 67.3324 345.211ZM600.666 166.667H67.3327L67.333 275.677C156.351 303.021 245.208 316.667 333.999 316.667C422.791 316.667 511.648 303.021 600.667 275.676L600.666 166.667ZM400.666 66.6667H267.333V100H400.666V66.6667Z" fill="#B3A4EF"/>
</svg>
