<svg xmlns="http://www.w3.org/2000/svg" width="38" height="38" viewBox="0 0 38 38" fill="none">
<path d="M32.015 10.8617C28.8483 9.91173 25.5867 10.7984 23.4808 12.9042L19 16.8784L16.5933 19.0001H16.6092L12.35 22.7842C11.0675 24.0667 9.2625 24.6051 7.41 24.2409C6.42873 24.0349 5.52582 23.5553 4.80572 22.8576C4.08561 22.16 3.57773 21.2727 3.34083 20.2984C3.14639 19.5082 3.13417 18.6841 3.30509 17.8885C3.47601 17.0929 3.8256 16.3466 4.32742 15.706C4.82923 15.0653 5.47014 14.5472 6.20168 14.1907C6.93322 13.8343 7.73624 13.6488 8.55 13.6484C9.99083 13.6484 11.3367 14.2026 12.4133 15.2792L13.1575 15.9284C13.7592 16.4667 14.6617 16.4667 15.2633 15.9284C15.9758 15.2951 15.9758 14.1867 15.2633 13.5534L14.5983 12.9834C13.8054 12.1875 12.8627 11.5566 11.8245 11.1272C10.7864 10.6978 9.67344 10.4784 8.55 10.4817C3.83167 10.4817 0 14.3134 0 19.0001C0 23.6867 3.83167 27.5184 8.55 27.5184C10.83 27.5184 12.9833 26.6317 14.5192 25.0959L19 21.1376L19.0158 21.1534L21.4067 19.0001H21.3908L25.65 15.2159C26.9325 13.9334 28.7375 13.3951 30.59 13.7592C32.5692 14.1551 34.2 15.7384 34.6592 17.7017C34.8536 18.4919 34.8658 19.316 34.6949 20.1116C34.524 20.9072 34.1744 21.6535 33.6726 22.2942C33.1708 22.9348 32.5299 23.4529 31.7983 23.8094C31.0668 24.1658 30.2638 24.3513 29.45 24.3517C28.025 24.3517 26.6633 23.7976 25.5867 22.7209L24.8267 22.0559C24.5375 21.7961 24.1625 21.6524 23.7737 21.6524C23.385 21.6524 23.01 21.7961 22.7208 22.0559C22.0083 22.6892 22.0083 23.7976 22.7208 24.4309L23.3858 25.0167C24.1809 25.8086 25.1244 26.4358 26.1623 26.8624C27.2002 27.289 28.312 27.5065 29.4342 27.5026C34.6117 27.5026 38.7125 22.9109 37.8733 17.6067C37.3983 14.4559 35.0708 11.7642 32.015 10.8617Z" fill="#B3A4EF"/>
</svg>