<svg xmlns="http://www.w3.org/2000/svg" width="260" height="150" viewBox="0 0 260 150" fill="none">
  <g clip-path="url(#clip0_67_1091)">
    <path d="M160.541 126.681C153.06 119.459 144.383 110.462 143.167 108.277C142.896 106.813 144.27 97.5906 144.27 97.5906L163.43 81.8619C168.103 86.9739 165.672 90.5274 159.632 96.5704C158.005 98.2006 158.545 100.216 160.744 101.485C161.17 101.731 161.658 101.95 162.206 102.134C165.575 103.258 169.896 102.589 171.836 100.643C193.096 81.2853 159.971 66.818 159.901 66.782C148.978 61.2665 142.828 54.7467 143.209 53.7052C143.558 52.5983 145.482 47.8421 154.288 42.2014C156.897 40.5314 156.662 37.9405 153.771 36.4533C153.1 36.1042 152.341 35.8514 151.538 35.6757C155.334 35.6103 159.094 34.7623 161.989 33.0906C168.024 29.6063 168.027 23.9596 161.991 20.4752C155.956 16.9908 146.181 16.9941 140.145 20.4785C134.113 23.9612 134.114 29.6062 140.145 33.0882C142.328 34.3482 145 35.1373 147.811 35.4841C146.323 35.6399 144.91 36.0547 143.815 36.7506C132.09 44.2616 129.664 50.8817 129.206 52.7339C128.302 56.3383 133.408 61.8363 140.461 66.8151C140.435 66.8384 140.412 66.854 140.381 66.8767L117.228 87.3309C117.228 87.3309 99.4481 95.7768 95.8509 98.5034C94.3266 99.6504 90.2691 102.691 90.9037 123.443C90.9435 124.86 91.9607 126.143 93.5735 127.074C95.2547 128.045 97.6072 128.64 100.179 128.613C105.21 128.562 109.222 126.162 109.134 123.258C108.927 116.069 110.773 104.621 110.773 104.621C110.773 104.621 118.378 100.625 124.559 97.7548C125.132 97.4684 126.377 97.8263 126.29 98.3369C125.988 99.6866 124.461 108.075 125.316 110.44C126.654 114.121 138.158 125.581 144.897 132.081C145.288 132.465 145.754 132.808 146.274 133.109C149.154 134.771 153.731 135.164 157.399 133.897C161.726 132.408 163.14 129.174 160.541 126.681Z" fill="#080A27"/>
    <path d="M163.004 66.2363C171.425 69.3808 182.673 67.9921 188.115 63.1318C193.564 58.2714 191.156 51.7821 182.737 48.6387C174.31 45.491 163.071 46.8822 157.63 51.7391C152.182 56.6005 154.588 63.0911 163.004 66.2363Z" fill="#080A27"/>
    <path d="M106.059 16.4436L103.707 15.125L79.6134 37.6297L98.5077 48.5122L136.423 33.9524L106.059 16.4436ZM97.8936 46.1491L98.5345 44.9974L96.537 45.368L94.6498 44.2809L99.4269 43.3946L101.709 39.294L94.6069 40.6117L93.0707 43.3716L91.1859 42.2858L91.831 41.1271L89.8216 41.5L87.9342 40.413L92.7234 39.5243L95.0058 35.4238L87.9034 36.7415L86.3635 39.5083L84.4784 38.4227L85.1272 37.257L83.1057 37.632L82.7371 37.4198L84.283 35.9763L86.0199 35.654L87.5255 32.9492L92.7078 28.1106L91.9703 29.4358L99.0725 28.1181L101.355 24.0175L96.0348 25.0046L97.9549 23.2101L102.246 22.4138L104.841 17.753L106.725 18.8396L105.022 21.8987L110.325 20.9151L113.431 22.7063L111.726 25.7691L117.035 24.7843L120.137 26.5727L118.43 29.6396L123.746 28.6535L126.843 30.4392L125.134 33.51L130.456 32.5226L132.342 33.6099L124.241 35.1131L122.961 37.4136L119.794 38.6295L121.465 35.6282L114.362 36.9461L112.08 41.0465L114.828 40.5368L107.587 43.3175L101.31 44.4822L100.428 46.0666L98.8213 46.6838L97.8936 46.1491Z" fill="#080A27"/>
    <path d="M108.058 27.8872L100.956 29.2052L98.6732 33.3055L105.776 31.9879L108.058 27.8872Z" fill="#080A27"/>
    <path d="M91.0779 31.038L88.795 35.1381L95.8979 33.8208L98.1799 29.7198L91.0779 31.038Z" fill="#080A27"/>
    <path d="M97.782 34.9085L95.4991 39.0086L102.602 37.6913L104.884 33.5903L97.782 34.9085Z" fill="#080A27"/>
    <path d="M114.762 31.7576L107.66 33.0757L105.377 37.176L112.48 35.8587L114.762 31.7576Z" fill="#080A27"/>
    <path d="M111.587 37.4606L104.485 38.7787L102.202 42.879L109.305 41.5617L111.587 37.4606Z" fill="#080A27"/>
    <path d="M122.358 34.0257L124.64 29.9248L117.538 31.2427L115.255 35.343L122.358 34.0257Z" fill="#080A27"/>
    <path d="M108.951 26.2848L111.233 22.1839L104.131 23.5019L101.848 27.6021L108.951 26.2848Z" fill="#080A27"/>
    <path d="M115.655 30.1553L117.937 26.0544L110.835 27.3724L108.552 31.4726L115.655 30.1553Z" fill="#080A27"/>
  </g>
  <defs>
    <clipPath id="clip0_67_1091">
      <rect width="150" height="150" fill="white" transform="matrix(0.866025 0.5 -0.866025 0.5 129.904 0)"/>
    </clipPath>
  </defs>
</svg>