<svg xmlns="http://www.w3.org/2000/svg" width="260" height="150" viewBox="0 0 260 150" fill="none">
  <path fill-rule="evenodd" clip-rule="evenodd" d="M183.373 70.987C171.359 77.9232 151.882 77.9239 139.868 70.9876C127.855 64.0518 127.855 52.8058 139.868 45.8696C151.881 38.9344 171.359 38.9344 183.372 45.8703C195.387 52.8067 195.385 64.0516 183.373 70.987ZM142.062 142.98L94.7444 115.661L116.367 91.0826C104.905 90.4113 93.9601 88.5941 85.4439 83.6772C80.9218 81.0664 77.0912 77.576 74.2295 72.9232C73.1887 71.4638 72.1192 69.7257 71.1199 67.6955L66.8572 67.3252C66.7249 67.3138 66.5962 67.2955 66.4736 67.2712C65.5475 67.0887 64.9279 66.5617 65.01 65.9793L65.5047 62.477L68.5124 35.8862C68.5695 35.3786 69.1504 34.9411 69.9843 34.7772L106.506 27.6019C107.198 27.4665 107.961 27.5396 108.539 27.7973C109.118 28.0549 109.433 28.4631 109.38 28.8839L108.27 37.713L118.684 38.4625C119.875 38.5481 120.721 39.1739 120.577 39.862L114.232 70.1322C114.161 70.4694 113.857 70.7762 113.389 70.982C112.92 71.1876 112.328 71.2752 111.745 71.2247L101.414 70.3273C101.501 70.4165 101.55 70.4641 101.55 70.4641C107.075 75.949 117.129 75.9595 136.846 75.9385C140.001 75.9335 143.297 75.9429 146.629 75.9674C149.83 75.9092 152.998 76.0862 155.918 76.4684C155.918 76.4684 159.669 76.8482 163.102 77.8946C166.388 78.9009 169.701 80.4143 169.701 80.4143L169.777 80.4497C178.928 84.934 185.766 93.042 179.384 100.397L142.062 142.98ZM103.941 37.4014L104.797 30.5949L79.2142 35.6209L103.941 37.4014Z" fill="#080A27"/>
</svg>