<svg width="38" height="38" viewBox="0 0 38 38" fill="none" xmlns="http://www.w3.org/2000/svg">
<circle cx="19" cy="19" r="19" fill="url(#paint0_radial_189_3841)"/>
<path fill-rule="evenodd" clip-rule="evenodd" d="M18.7832 6.5C25.687 6.5 31.2832 12.0963 31.2832 19C31.2832 25.9037 25.687 31.5 18.7832 31.5C11.8795 31.5 6.2832 25.9037 6.2832 19C6.2832 12.0963 11.8795 6.5 18.7832 6.5ZM18.7832 9C16.131 9 13.5875 10.0536 11.7121 11.9289C9.83677 13.8043 8.7832 16.3478 8.7832 19C8.7832 21.6522 9.83677 24.1957 11.7121 26.0711C13.5875 27.9464 16.131 29 18.7832 29C21.4354 29 23.9789 27.9464 25.8543 26.0711C27.7296 24.1957 28.7832 21.6522 28.7832 19C28.7832 16.3478 27.7296 13.8043 25.8543 11.9289C23.9789 10.0536 21.4354 9 18.7832 9ZM17.0157 13.6962C17.4583 13.254 18.0505 12.9937 18.6756 12.9669C19.3007 12.9401 19.9131 13.1486 20.392 13.5512L20.5507 13.6962L24.087 17.2325C24.5292 17.675 24.7895 18.2673 24.8163 18.8924C24.8431 19.5175 24.6346 20.1299 24.232 20.6087L24.087 20.7675L20.5507 24.3037C20.1082 24.746 19.5159 25.0063 18.8908 25.0331C18.2657 25.0599 17.6533 24.8514 17.1745 24.4487L17.0157 24.3037L13.4795 20.7675C13.0372 20.325 12.777 19.7327 12.7501 19.1076C12.7233 18.4825 12.9318 17.8701 13.3345 17.3913L13.4795 17.2325L17.0157 13.6962ZM18.7832 15.465L15.2482 19L18.7832 22.535L22.3182 19L18.7832 15.465Z" fill="url(#paint1_linear_189_3841)"/>
<defs>
<radialGradient id="paint0_radial_189_3841" cx="0" cy="0" r="1" gradientUnits="userSpaceOnUse" gradientTransform="translate(19 19) rotate(90) scale(19)">
<stop stop-color="#6140CD" stop-opacity="0.6"/>
<stop offset="0.9999" stop-color="#737C98" stop-opacity="0"/>
<stop offset="1" stop-color="white" stop-opacity="0"/>
</radialGradient>
<linearGradient id="paint1_linear_189_3841" x1="18.7832" y1="6.5" x2="18.7832" y2="31.5" gradientUnits="userSpaceOnUse">
<stop stop-color="#B3A4EF"/>
<stop offset="1" stop-color="white"/>
</linearGradient>
</defs>
</svg>
