<svg xmlns="http://www.w3.org/2000/svg" width="29" height="28" viewBox="0 0 29 28" fill="none">
<path d="M13.7832 2.32843H4.44987C3.74263 2.32843 3.06435 2.60938 2.56425 3.10948C2.06415 3.60958 1.7832 4.28785 1.7832 4.9951V23.6618C1.7832 24.369 2.06415 25.0473 2.56425 25.5474C3.06435 26.0475 3.74263 26.3284 4.44987 26.3284H23.1165C23.8238 26.3284 24.5021 26.0475 25.0022 25.5474C25.5023 25.0473 25.7832 24.369 25.7832 23.6618V14.3284" stroke="#B3A4EF" stroke-width="2" stroke-linecap="round" stroke-linejoin="round"/>
<path d="M22.2835 1.82843C22.814 1.29799 23.5334 1 24.2835 1C25.0337 1 25.7531 1.29799 26.2835 1.82843C26.814 2.35886 27.112 3.07828 27.112 3.82843C27.112 4.57857 26.814 5.29799 26.2835 5.82843L13.7835 18.3284L8.4502 19.6618L9.78353 14.3284L22.2835 1.82843Z" stroke="#B3A4EF" stroke-width="2" stroke-linecap="round" stroke-linejoin="round"/>
</svg>