<svg width="24" height="24" viewBox="0 0 24 24" fill="none" xmlns="http://www.w3.org/2000/svg">
<g clip-path="url(#clip0_256_3741)">
<path d="M5.2 0C2.34689 0 0 2.34689 0 5.2V18.8C0 21.6531 2.34689 24 5.2 24H12.0631C14.7133 24 16.9255 21.9747 17.2269 19.4H13.9774C13.7329 20.2264 12.9881 20.8 12.0631 20.8H5.2C4.06433 20.8 3.2 19.9357 3.2 18.8V5.2C3.2 4.06433 4.06433 3.2 5.2 3.2H12.0631C12.9881 3.2 13.7329 3.77359 13.9774 4.6H17.2269C16.9255 2.02532 14.7133 0 12.0631 0H5.2Z" fill="#B3A4EF"/>
<path d="M19.0747 7.19995C18.8646 7.19994 18.6565 7.24132 18.4624 7.32172C18.2683 7.40212 18.0919 7.51997 17.9433 7.66854C17.7947 7.81712 17.6768 7.99351 17.5964 8.18763C17.516 8.38176 17.4746 8.58983 17.4746 8.79995C17.4746 9.01007 17.516 9.21814 17.5964 9.41227C17.6768 9.60639 17.7947 9.78278 17.9433 9.93136L18.4119 10.4H6.54922C6.12487 10.4 5.71791 10.5685 5.41785 10.8686C5.11779 11.1686 4.94922 11.5756 4.94922 12C4.94922 12.4243 5.11779 12.8313 5.41785 13.1313C5.71791 13.4314 6.12487 13.6 6.54922 13.6H18.4119L17.9433 14.0685C17.7947 14.2171 17.6768 14.3935 17.5964 14.5876C17.516 14.7818 17.4746 14.9898 17.4746 15.2C17.4746 15.4101 17.516 15.6181 17.5964 15.8123C17.6768 16.0064 17.7947 16.1828 17.9433 16.3314C18.0919 16.4799 18.2682 16.5978 18.4624 16.6782C18.6565 16.7586 18.8646 16.8 19.0747 16.8C19.2848 16.8 19.4929 16.7586 19.687 16.6782C19.8811 16.5978 20.0575 16.4799 20.2061 16.3314L23.1177 13.4197C23.3814 13.2874 23.6034 13.0848 23.7591 12.8342C23.9148 12.5837 23.9983 12.295 24.0002 12C23.9998 11.7004 23.9153 11.407 23.7564 11.1531C23.5975 10.8992 23.3706 10.695 23.1013 10.5638L20.2061 7.66854C20.0575 7.51997 19.8811 7.40212 19.687 7.32172C19.4929 7.24132 19.2848 7.19994 19.0747 7.19995Z" fill="#B3A4EF"/>
</g>
<defs>
<clipPath id="clip0_256_3741">
<rect width="24" height="24" fill="white"/>
</clipPath>
</defs>
</svg>
