<svg width="764" height="66" viewBox="0 0 764 66" fill="none" xmlns="http://www.w3.org/2000/svg">
<path fill-rule="evenodd" clip-rule="evenodd" d="M139.223 1.67002C137.42 2.55802 134.927 4.49501 133.682 5.97501C130.833 9.36101 104 61.382 104 63.52C104 64.83 104.773 64.559 110.373 64.559L117.114 64.509L129.981 39.515C137.058 25.769 143.764 13.528 144.873 12.792C146.244 11.881 147.425 12.147 148.577 12.792C149.51 13.314 155.506 23.814 161.903 36.125C168.299 48.436 175.905 63.108 176.873 64.896C176.873 64.896 176.873 64.896 183.373 64.896C187.579 64.896 190 64.607 190 63.861C190 62.156 163.07 10.025 160.29 6.34901C155.721 0.308007 146.252 -1.79498 139.223 1.67002ZM367.25 1.671V15.009C367.25 15.009 375.652 15.009 383.582 15.009H398V40.009L397.873 64.896H403.873C408.873 64.896 409.873 64.896 409.873 64.896C409.893 63.934 410.045 52.509 410.008 41.509C409.97 30.509 409.873 18.396 409.873 18.396V15.009H425.043C432.629 15.009 440.418 15.009 440.418 15.009V1.61601L367.25 1.671ZM479.373 38.8958C478.389 39.5208 470.029 9.497 470.235 33.577L470.5 64.509H476.373H483V52.3958V39.975L508.469 40.009H533.719V52.3482C533.694 58.4522 533.373 64.509 533.719 64.509C533.719 64.509 535.873 64.509 540 64.509H546V33.103C546.298 -1.05798 540.264 2.21102 540.264 2.21102C540.264 2.21102 533.575 4.72703 533.719 14.759C533.787 19.5 533.719 25.8958 533.438 27.009L533 27.044L508.25 26.776L483.5 26.509L483.216 14.547C483.026 6.519 480.19 37.4138 479.373 36.8958C477.776 35.8798 479.373 38.8958 479.373 38.8958ZM0 33.461V64.509H5.87305C10.373 64.509 12.373 64.509 12.873 64.509C12.873 63.509 13 56.932 13 50.927V40.009H37.969H63.219V52.3481V64.509H69.5H75.5V33.103V2.21101H69.764H63.219V14.759L62.938 27.009H38H13.062V14.509V1.91401H6.5H0V33.461ZM217 7.47401C217 11.741 217 13.7819 217 13.896C217 13.896 232.821 14.347 248.873 14.396C280 14.396 280 14.393 280 21.042C280 27 280 27.009 247.098 27.009L217.5 27.509V46.009V64.509H249.075C249.075 64.509 265.485 64.5873 272.671 64.509C279.858 64.4307 284.165 62.099 284.165 62.099C292.362 56.479 295.257 46.304 291.101 37.718L288.965 33.305L290.961 28.907C293.364 23.609 293.537 18.229 291.462 13.263C289.477 8.51301 287.373 6.24202 282.79 3.90302C279.385 2.16502 276.525 2.00901 248.04 2.00901H217V7.47401ZM324.873 33.396V64.896H330.873C335.373 64.896 337.873 64.896 337.873 64.896C337.873 64.896 337.987 49.841 337.873 33.461V1.91401H330.873H325L324.873 33.396ZM278.171 41.664C280.448 43.725 280.531 47.765 278.345 50.18C276.832 51.852 274.691 52.009 253.345 52.009H230V46.009V40.009H253.171C273.329 40.009 276.58 40.224 278.171 41.664Z" fill="url(#paint0_linear_67_989)"/>
<path d="M470.5 64.509V33.461V1.91402H477H483.562V14.509V27.009H508.5H533.438L533.729 20.8958L533.719 14.759V2.21102H540.264H546.373L546 33.103V64.509H540H533.719V52.3482V40.009H508.469L483 39.975V52.3958C483 58.4008 483 63.509 483 64.509H476.373H470.5Z" fill="url(#paint1_linear_67_989)"/>
<path fill-rule="evenodd" clip-rule="evenodd" d="M687.538 5.96461V12.3866C687.538 12.3866 703.359 12.8376 719.411 12.8866C750.538 12.8866 750.538 13.5652 750.538 19.5326C750.538 25.5 750.538 25.4996 717.636 25.4996L688.038 25.9996V44.4996V62.9996H719.613C719.613 62.9996 736.023 63.0779 743.209 62.9996C750.396 62.9213 754.703 60.5896 754.703 60.5896C762.9 54.9696 765.795 44.7946 761.639 36.2086L759.503 31.7956L761.499 27.3976C763.902 22.0996 764.075 16.7196 762 11.7536C760.015 7.00362 757.911 4.73263 753.328 2.39363C749.923 0.655631 747.063 0.499619 718.578 0.499619H687.538V5.96461ZM748.883 48.6706C751.069 46.2556 750.986 42.2156 748.709 40.1546C747.118 38.7146 743.867 38.4996 723.709 38.4996H700.538V44.4996V50.4996H723.883C745.229 50.4996 747.37 50.3426 748.883 48.6706Z" fill="url(#paint2_linear_67_989)"/>
<path d="M580.106 23.9846C580.106 13.1766 580.426 4.01264 580.818 3.62164C581.209 3.22964 583.796 3.04262 586.568 3.20462L591.606 3.49963L592.106 24.4996C592.82 54.5067 591.85 53.4996 620.062 53.4996C649.491 53.4996 649.102 53.9047 649.104 23.2496L649.106 2.99963H654.5H660.313V22.7496C660.843 47.7137 660.077 51.5606 653.256 58.1616C646.234 64.9576 641.819 65.9996 620.039 65.9996C598.829 65.9996 593.918 64.8497 587.422 58.3626C581.059 52.0086 580.106 47.5287 580.106 23.9846Z" fill="url(#paint3_linear_67_989)"/>
<defs>
<linearGradient id="paint0_linear_67_989" x1="0" y1="32.448" x2="763.524" y2="32.448" gradientUnits="userSpaceOnUse">
<stop stop-color="#5A3FD1"/>
<stop offset="1" stop-color="#FCFDFF"/>
</linearGradient>
<linearGradient id="paint1_linear_67_989" x1="0" y1="32.448" x2="763.524" y2="32.448" gradientUnits="userSpaceOnUse">
<stop stop-color="#5A3FD1"/>
<stop offset="1" stop-color="#FCFDFF"/>
</linearGradient>
<linearGradient id="paint2_linear_67_989" x1="0" y1="32.448" x2="763.524" y2="32.448" gradientUnits="userSpaceOnUse">
<stop stop-color="#5A3FD1"/>
<stop offset="1" stop-color="#FCFDFF"/>
</linearGradient>
<linearGradient id="paint3_linear_67_989" x1="0" y1="32.448" x2="763.524" y2="32.448" gradientUnits="userSpaceOnUse">
<stop stop-color="#5A3FD1"/>
<stop offset="1" stop-color="#FCFDFF"/>
</linearGradient>
</defs>
</svg>
