<svg xmlns="http://www.w3.org/2000/svg" width="27" height="21" viewBox="0 0 27 21" fill="none">
  <path d="M2.7 21C1.9575 21 1.3221 20.7432 0.7938 20.2296C0.2655 19.7159 0.0009 19.0977 0 18.375V2.625C0 1.90312 0.2646 1.28537 0.7938 0.77175C1.323 0.258125 1.9584 0.000875 2.7 0H24.3C25.0425 0 25.6783 0.25725 26.2075 0.77175C26.7367 1.28625 27.0009 1.904 27 2.625V18.375C27 19.0969 26.7358 19.7151 26.2075 20.2296C25.6792 20.7441 25.0434 21.0009 24.3 21H2.7ZM13.5 11.8125L24.3 5.25V2.625L13.5 9.1875L2.7 2.625V5.25L13.5 11.8125Z" fill="white"/>
</svg>