<svg xmlns="http://www.w3.org/2000/svg" width="260" height="150" viewBox="0 0 260 150" fill="none">
  <g clip-path="url(#clip0_67_1079)">
    <path d="M161.416 57.2168C170.132 62.2488 184.263 62.2488 192.979 57.2168C201.694 52.1847 201.694 44.0262 192.979 38.9941C184.263 33.9621 170.132 33.9621 161.416 38.9941C152.7 44.0262 152.7 52.1848 161.416 57.2168Z" fill="#080A27"/>
    <path d="M162.887 124.16C162.989 123.867 162.989 123.574 162.989 123.281L161.72 103.33L175.015 82.2949C178.212 76.8164 177.603 71.8945 170.803 67.9688L141.626 51.1231C134.775 47.168 126.301 46.8457 116.812 48.6914L80.3782 56.3672L45.8218 55.6348C45.3143 55.6348 44.7561 55.6641 44.2995 55.6934C40.8996 55.5469 37.3983 56.2207 34.8104 57.7149C30.0912 60.4395 30.0912 64.8926 34.8104 67.6172C37.6013 69.2285 41.3563 69.8731 45.0099 69.5801C45.2636 69.6094 45.568 69.6094 45.771 69.6094L82.4079 70.3711C83.8288 70.3711 85.1989 70.2246 86.5182 69.9317L105.496 65.9473L82.3572 78.9551L41.4578 71.9824C33.9985 70.7227 26.0317 72.6856 22.5304 76.6992C19.0291 80.7129 20.9574 85.5762 27.1481 88.2715L77.0291 105.234L106.41 134.033C111.078 137.607 119.552 138.75 126.453 136.699C133.405 134.678 136.805 130.078 134.623 125.772L122.597 102.129L145.127 88.7695L138.226 99.7266C137.719 100.488 137.516 101.309 137.465 102.1L138.784 123.252C138.784 123.428 138.784 123.545 138.835 123.691C138.378 125.771 139.444 127.969 142.235 129.58C146.954 132.305 154.667 132.305 159.386 129.58C162.025 128.115 163.141 126.123 162.887 124.16Z" fill="#080A27"/>
  </g>
  <defs>
    <clipPath id="clip0_67_1079">
      <rect width="150" height="150" fill="white" transform="matrix(0.866025 0.5 -0.866025 0.5 129.904 0)"/>
    </clipPath>
  </defs>
</svg>