<svg xmlns="http://www.w3.org/2000/svg" width="38" height="38" viewBox="0 0 38 38" fill="none">
<path d="M37.5882 0.00342143L28.4461 1.11989C28.1432 1.1571 28.0147 1.53391 28.2304 1.75255L30.9519 4.51116L20.5799 15.0246L15.9079 10.2935C15.6188 10.0005 15.1553 10.0051 14.8707 10.2935L0.106658 25.2635C0.0383298 25.3334 0 25.4279 0 25.5263C0 25.6248 0.0383298 25.7192 0.106658 25.7892L2.17188 27.8918C2.31415 28.0361 2.54821 28.0361 2.69048 27.8918L15.3893 15.0246L20.0567 19.7556C20.3458 20.044 20.8094 20.044 21.0939 19.7556L33.5495 7.13951L36.271 9.89811C36.3198 9.9473 36.3812 9.98164 36.4483 9.9972C36.5153 10.0128 36.5854 10.0089 36.6504 9.98616C36.7154 9.96338 36.7728 9.92256 36.8161 9.86835C36.8594 9.81413 36.8868 9.74869 36.8952 9.67947L37.9966 0.412792C38.0288 0.175543 37.8268 -0.0291422 37.5882 0.00342143Z" fill="#B3A4EF"/>
</svg>