<svg xmlns="http://www.w3.org/2000/svg" width="40" height="43" viewBox="0 0 40 43" fill="none">
<path d="M27.369 3.12708C25.4979 1.11051 22.8845 0 20 0C17.1001 0 14.478 1.10379 12.6156 3.10788C10.7329 5.13405 9.81567 7.88777 10.031 10.8613C10.458 16.7277 14.9299 21.4999 20 21.4999C25.0701 21.4999 29.5344 16.7286 29.968 10.8632C30.1863 7.91656 29.2632 5.16861 27.369 3.12708ZM36.9226 42.9997H3.07739C2.63439 43.0055 2.19567 42.9126 1.79316 42.7278C1.39065 42.543 1.03447 42.271 0.750529 41.9315C0.125546 41.1857 -0.12637 40.1673 0.0601637 39.1375C0.87168 34.6436 3.4043 30.8686 7.38496 28.2186C10.9214 25.8661 15.4011 24.5713 20 24.5713C24.5989 24.5713 29.0786 25.867 32.615 28.2186C36.5957 30.8677 39.1283 34.6426 39.9398 39.1365C40.1264 40.1664 39.8745 41.1847 39.2495 41.9305C38.9656 42.2702 38.6095 42.5424 38.207 42.7274C37.8045 42.9123 37.3657 43.0054 36.9226 42.9997Z" fill="white"/>
</svg>