<svg xmlns="http://www.w3.org/2000/svg" width="260" height="150" viewBox="0 0 260 150" fill="none">
  <g clip-path="url(#clip0_67_1108)">
    <path d="M163.022 57.0542C168.471 60.2001 177.247 60.2338 182.624 57.1295C188 54.0252 187.942 48.9584 182.493 45.8125C177.044 42.6666 168.268 42.6328 162.891 45.7371C157.515 48.8414 157.573 53.9082 163.022 57.0542Z" fill="#080A27"/>
    <path d="M213.47 52.5383C214.024 52.0968 214.273 51.8669 214.348 51.7923C215.745 50.4258 214.839 48.7274 212.476 47.9235C210.488 47.2471 208.324 47.2833 206.34 48.4214L178.041 32.083C180.011 30.9365 180.184 29.6237 179.014 28.4753C177.62 27.1111 174.457 26.7172 172.09 27.5245C171.961 27.5679 171.675 27.6467 170.91 27.966L151.816 16.9424C146.59 13.9248 138.117 13.9248 132.89 16.9424L19.5465 82.3813C17.6794 83.4592 17.6022 85.158 19.4687 86.2356C21.3364 87.3139 24.2722 87.2656 26.1393 86.1876L140.339 20.2544C142.179 19.192 145.164 19.1916 147.004 20.2544L164.648 30.4409C154.083 34.999 136.341 44.5514 141.431 55.3006C141.515 55.4749 141.807 55.7844 141.807 55.7844L59.4678 103.218C56.5538 104.9 56.6863 107.682 59.6003 109.365C62.5157 111.048 67.3732 111.102 70.2866 109.42L110.048 86.464L112.026 87.6059L72.2651 110.562C69.3517 112.244 69.5139 115.066 72.428 116.748C75.342 118.431 80.1554 118.481 83.0687 116.799L165.328 69.2756C165.328 69.2756 165.804 69.5002 166.106 69.5474C184.724 72.4855 201.289 62.254 209.184 56.1544L223.408 64.3666C225.248 65.4289 225.248 67.1524 223.408 68.2148L109.546 133.953C107.492 135.138 107.727 137.198 109.782 138.384C111.836 139.57 115.402 139.707 117.457 138.52L230.463 73.2765C235.69 70.2588 235.69 65.3669 230.463 62.3492L213.47 52.5383ZM172.836 64.0963L150.891 51.4265C150.317 45.0052 163.251 38.0083 171.741 34.5362L202.09 52.058C196.077 56.9602 183.958 64.4278 172.836 64.0963Z" fill="#080A27"/>
  </g>
  <defs>
    <clipPath id="clip0_67_1108">
      <rect width="150" height="150" fill="white" transform="matrix(0.866025 0.5 -0.866025 0.5 129.904 0)"/>
    </clipPath>
  </defs>
</svg>