<svg xmlns="http://www.w3.org/2000/svg" width="260" height="150" viewBox="0 0 260 150" fill="none">
  <g clip-path="url(#clip0_75_176)">
    <path d="M211.89 91.635C212.221 89.4785 209.456 87.5737 205.728 87.3788L181.213 86.1482L190.266 73.8466C190.618 73.3917 190.766 72.9246 190.808 72.4617C192.341 70.1305 192.559 67.4947 190.949 64.9645C190.238 63.872 189.211 62.9135 188.022 62.0485C187.882 61.7886 187.818 61.5165 187.586 61.2606L170.676 43.9513C169.719 42.9848 168.164 42.3553 166.448 42.0953C164.724 41.6039 162.684 41.5064 160.799 41.9857L129.271 49.9946C125.845 50.8677 124.284 53.1827 125.789 55.1727C127.295 57.1465 131.318 58.0481 134.758 57.1749L161.383 50.4129L169.093 58.2918C168.41 58.3852 167.735 58.4502 167.074 58.5883L123.714 67.8155C123.081 67.9536 122.532 68.1486 121.941 68.3273L77.4138 74.8253L40.2582 64.1279C34.7503 63.6689 29.6433 65.8458 28.8203 69.0096C28.0043 72.1855 31.7888 75.1421 37.2616 75.6132L75.5637 86.396C77.0691 86.5341 78.5322 86.4203 79.904 86.1807C80.6426 86.1685 81.353 86.2295 82.0987 86.1157L108.646 82.2413L111.249 101.069L71.1813 102.45C65.6593 102.641 61.4106 105.395 61.7623 108.587C62.0859 111.787 66.8552 114.224 72.4053 114.033L122.399 112.315C123.946 112.266 125.325 111.974 126.605 111.576C127.316 111.369 127.871 111.048 128.469 110.752C128.751 110.589 129.109 110.504 129.349 110.341C131.227 109.184 132.324 107.641 132.078 105.947L129.693 88.6175C131.972 88.65 134.287 88.4591 136.559 87.9758L169.782 80.9132L164.19 88.0246C163.536 88.5647 163.022 89.1698 162.931 89.8724C162.832 90.5141 163.078 91.1193 163.486 91.6797C163.522 91.7406 163.599 91.7934 163.662 91.8544C163.944 92.1955 164.239 92.5367 164.675 92.8128C165.168 93.154 165.787 93.4301 166.497 93.6616C166.518 93.6657 166.525 93.6698 166.525 93.6698C166.708 93.7347 166.828 93.8363 167.039 93.885C168.115 94.1652 169.212 94.2221 170.31 94.1815L205.657 95.8507C209.4 96.0375 211.566 93.7957 211.89 91.635Z" fill="#080A27"/>
    <path d="M199.269 70.9955C206.67 75.2684 218.67 75.2684 226.07 70.9955C233.471 66.7226 233.471 59.7949 226.07 55.522C218.67 51.2491 206.67 51.2491 199.269 55.522C191.869 59.7949 191.869 66.7226 199.269 70.9955Z" fill="#080A27"/>
  </g>
  <defs>
    <clipPath id="clip0_75_176">
      <rect width="150" height="150" fill="white" transform="matrix(0.866025 0.5 -0.866025 0.5 129.904 0)"/>
    </clipPath>
  </defs>
</svg>