<svg xmlns="http://www.w3.org/2000/svg" width="26" height="26" viewBox="0 0 26 26" fill="none">
<path fill-rule="evenodd" clip-rule="evenodd" d="M15.5841 16.7332C14.1239 17.8998 12.2725 18.4631 10.41 18.3073C8.54749 18.1515 6.81534 17.2885 5.56929 15.8955C4.32324 14.5024 3.65788 12.6852 3.70986 10.8169C3.76185 8.9486 4.52723 7.17113 5.84882 5.84955C7.1704 4.52796 8.94786 3.76258 10.8161 3.7106C12.6844 3.65861 14.5017 4.32397 15.8947 5.57002C17.2878 6.81607 18.1508 8.54822 18.3066 10.4107C18.4624 12.2732 17.8991 14.1247 16.7324 15.5848L22.3181 21.1694C22.3979 21.2438 22.462 21.3335 22.5064 21.4332C22.5508 21.5328 22.5747 21.6404 22.5766 21.7495C22.5785 21.8586 22.5584 21.967 22.5176 22.0682C22.4767 22.1693 22.4159 22.2612 22.3387 22.3384C22.2616 22.4155 22.1697 22.4764 22.0685 22.5172C21.9673 22.5581 21.859 22.5782 21.7499 22.5762C21.6408 22.5743 21.5332 22.5504 21.4335 22.506C21.3339 22.4616 21.2442 22.3976 21.1698 22.3178L15.5841 16.7332ZM6.99761 15.041C6.20249 14.2458 5.66094 13.2327 5.44141 12.1298C5.22189 11.0269 5.33423 9.88373 5.76425 8.84467C6.19426 7.8056 6.92265 6.91733 7.85736 6.29212C8.79206 5.6669 9.89113 5.33281 11.0157 5.33205C12.1402 5.33129 13.2397 5.66391 14.1753 6.28787C15.1108 6.91182 15.8404 7.79911 16.2718 8.8376C16.7032 9.87608 16.8171 11.0191 16.599 12.1223C16.381 13.2255 15.8408 14.2393 15.0468 15.0356L15.0414 15.041L15.0359 15.0453C13.969 16.1098 12.5231 16.7073 11.0159 16.7065C9.50869 16.7057 8.06344 16.1067 6.99761 15.041Z" fill="#B3A4EF"/>
</svg>