<svg width="123" height="47" viewBox="0 0 123 47" fill="none" xmlns="http://www.w3.org/2000/svg">
<path fill-rule="evenodd" clip-rule="evenodd" d="M65.8448 4.17246C65.8448 7.37459 65.8448 8.90619 65.8448 8.9918C65.8448 8.9918 77.7451 9.33025 89.8192 9.36702C113.232 9.36702 113.232 9.36474 113.232 14.3544C113.232 18.8256 113.232 18.8323 88.484 18.8323L66.2209 19.2075V33.0907V46.9739H89.9711C89.9711 46.9739 102.315 47.0326 107.72 46.9739C113.125 46.9151 116.365 45.1653 116.365 45.1653C122.531 40.9478 124.708 33.3121 121.582 26.8688L119.976 23.5571L121.477 20.2567C123.285 16.2808 123.415 12.2435 121.854 8.51676C120.361 4.95216 118.778 3.24792 115.331 1.49264C112.77 0.188371 110.619 0.0712929 89.1926 0.0712929H65.8448V4.17246ZM111.857 29.8301C113.569 31.3767 113.632 34.4085 111.988 36.2208C110.849 37.4755 109.239 37.5934 93.1829 37.5934H75.6232V33.0907V28.5881H93.0521C108.215 28.5881 110.66 28.7494 111.857 29.8301Z" fill="white"/>
<path d="M0 46.9739V23.6742V0H4.8892H9.82504V9.45181V18.8323H28.583H47.341L47.5523 9.63942V0.222879H52.4754H56.7899V23.4055V46.9739H52.2768H47.5523V37.8479V28.5881H28.5597H9.7784V36.7814C9.7784 41.2878 9.6829 46.2235 9.6829 46.9739H4.41761H0Z" fill="white"/>
</svg>
