<svg xmlns="http://www.w3.org/2000/svg" width="20" height="26" viewBox="0 0 20 26" fill="none">
  <path fill-rule="evenodd" clip-rule="evenodd" d="M5.62759 4.36588C5.62759 3.20797 6.08825 2.0975 6.90823 1.27874C7.72821 0.459975 8.84035 0 9.99997 0C11.1596 0 12.2717 0.459975 13.0917 1.27874C13.9117 2.0975 14.3724 3.20797 14.3724 4.36588C14.3724 5.52378 13.9117 6.63426 13.0917 7.45302C12.2717 8.27178 11.1596 8.73175 9.99997 8.73175C8.84035 8.73175 7.72821 8.27178 6.90823 7.45302C6.08825 6.63426 5.62759 5.52378 5.62759 4.36588ZM1.39874 11.5172C2.2888 10.6736 3.46921 10.2032 4.69645 10.2032C5.92368 10.2032 7.1041 10.6736 7.99415 11.5172L8.01304 11.5361L9.99997 13.5201L11.9888 11.5361L12.0077 11.5172C12.8975 10.6747 14.0772 10.205 15.3035 10.205C16.5298 10.205 17.7095 10.6747 18.5993 11.5172C19.0413 11.9358 19.3934 12.4398 19.6342 12.9985C19.875 13.5573 19.9995 14.1591 20 14.7673C20.0005 15.3756 19.8771 15.9776 19.6373 16.5368C19.3975 17.0959 19.0463 17.6005 18.605 18.0198L10.6572 25.7332C10.481 25.9043 10.2448 26 9.99903 26C9.75321 26 9.51708 25.9043 9.34081 25.7332L1.39497 18.0198C0.953865 17.6007 0.60274 17.0963 0.362933 16.5374C0.123127 15.9785 -0.000352563 15.3767 7.56088e-07 14.7687C0.000354075 14.1606 0.124533 13.559 0.364989 13.0004C0.605444 12.4418 0.957155 11.9359 1.39874 11.5172Z" fill="white"/>
</svg>