<svg xmlns="http://www.w3.org/2000/svg" width="38" height="38" viewBox="0 0 38 38" fill="none">
<path d="M19.0106 29.9609C20.2139 29.9609 21.368 29.7076 22.4728 29.2009C23.5762 28.6942 24.6057 27.9462 25.5613 26.9568L24.2123 25.6986C23.4115 26.4614 22.5713 27.0426 21.6917 27.4423C20.812 27.842 19.9148 28.0419 19 28.0419C18.0852 28.0419 17.188 27.842 16.3083 27.4423C15.4287 27.0426 14.5885 26.4614 13.7877 25.6986L12.4387 26.9568C13.4295 27.9715 14.4724 28.7259 15.5673 29.2199C16.6609 29.7139 17.8086 29.9609 19.0106 29.9609ZM19.0063 38C16.3801 38 13.9101 37.5018 11.5963 36.5053C9.28396 35.5075 7.27207 34.1536 5.56067 32.4436C3.84926 30.735 2.49463 28.7252 1.49678 26.4142C0.498926 24.1033 0 21.634 0 19.0063C0 16.3801 0.498222 13.9101 1.49467 11.5963C2.49252 9.28396 3.84644 7.27207 5.55644 5.56067C7.26504 3.84926 9.27481 2.49463 11.5858 1.49678C13.8967 0.498926 16.366 0 18.9937 0C21.6199 0 24.0899 0.498222 26.4037 1.49467C28.716 2.49252 30.7279 3.84644 32.4393 5.55644C34.1507 7.26504 35.5054 9.27481 36.5032 11.5858C37.5011 13.8967 38 16.366 38 18.9937C38 21.6199 37.5018 24.0899 36.5053 26.4037C35.5075 28.716 34.1536 30.7279 32.4436 32.4393C30.735 34.1507 28.7252 35.5054 26.4142 36.5032C24.1033 37.5011 21.634 38 19.0063 38ZM11.8138 18.3498C13.0213 18.3498 14.0501 17.9283 14.9002 17.0852C15.7503 16.2422 16.3689 15.231 16.7559 14.0516L14.953 13.5956C14.6954 14.3696 14.3063 15.0445 13.7856 15.6201C13.2648 16.1957 12.6076 16.4836 11.8138 16.4836C11.0214 16.4836 10.3649 16.1957 9.84411 15.6201C9.32337 15.0445 8.93422 14.3696 8.67667 13.5956L6.87378 14.0516C7.26082 15.231 7.87937 16.2422 8.72945 17.0852C9.57811 17.9297 10.6062 18.3498 11.8138 18.3498ZM26.1862 18.3519C27.3938 18.3519 28.4219 17.9297 29.2706 17.0852C30.1206 16.2422 30.7399 15.231 31.1283 14.0516L29.3233 13.5956C29.0672 14.3696 28.678 15.0445 28.1559 15.6201C27.6351 16.1957 26.9786 16.4836 26.1862 16.4836C25.3924 16.4836 24.7352 16.1957 24.2144 15.6201C23.6937 15.0445 23.3046 14.3696 23.047 13.5956L21.2441 14.0516C21.6311 15.231 22.2504 16.2422 23.1019 17.0852C23.9506 17.9297 24.978 18.3519 26.1841 18.3519" fill="#B3A4EF"/>
</svg>