<svg xmlns="http://www.w3.org/2000/svg" width="26" height="19" viewBox="0 0 26 19" fill="none">
  <path d="M25.7182 0.00232168L19.4631 0.759925C19.2559 0.785178 19.168 1.04087 19.3155 1.18923L21.1776 3.06114L14.081 10.1952L10.8844 6.98489C10.6865 6.78602 10.3694 6.78918 10.1747 6.98489L0.0729762 17.1431C0.0262257 17.1905 0 17.2546 0 17.3214C0 17.3882 0.0262257 17.4523 0.0729762 17.4998L1.48602 18.9266C1.58337 19.0245 1.74351 19.0245 1.84086 18.9266L10.5295 10.1952L13.723 13.4056C13.9208 13.6013 14.238 13.6013 14.4327 13.4056L22.9549 4.84467L24.817 6.71658C24.8504 6.74996 24.8924 6.77325 24.9383 6.78381C24.9842 6.79438 25.0321 6.79178 25.0766 6.77632C25.1211 6.76087 25.1604 6.73317 25.19 6.69638C25.2196 6.65959 25.2383 6.61518 25.2441 6.56821L25.9977 0.280109C26.0197 0.119118 25.8815 -0.0197751 25.7182 0.00232168Z" fill="white"/>
</svg>