<svg xmlns="http://www.w3.org/2000/svg" width="26" height="26" viewBox="0 0 26 26" fill="none">
  <path d="M13.0072 20.4996C13.8306 20.4996 14.6202 20.3262 15.3761 19.9796C16.1311 19.6329 16.8355 19.1211 17.4893 18.4441L16.5663 17.5832C16.0184 18.1051 15.4435 18.5029 14.8417 18.7763C14.2398 19.0498 13.6259 19.1866 13 19.1866C12.3741 19.1866 11.7602 19.0498 11.1583 18.7763C10.5565 18.5029 9.98159 18.1051 9.43367 17.5832L8.51067 18.4441C9.18859 19.1384 9.90215 19.6546 10.6513 19.9926C11.3996 20.3306 12.1849 20.4996 13.0072 20.4996ZM13.0043 26C11.2074 26 9.51744 25.6591 7.93433 24.9773C6.35219 24.2946 4.97563 23.3682 3.80467 22.1982C2.6337 21.0292 1.70685 19.6541 1.02411 18.0729C0.34137 16.4917 0 14.8022 0 13.0043C0 11.2074 0.340889 9.51744 1.02267 7.93433C1.70541 6.35219 2.63178 4.97563 3.80178 3.80467C4.97081 2.6337 6.34593 1.70685 7.92711 1.02411C9.5083 0.34137 11.1978 0 12.9957 0C14.7926 0 16.4826 0.340889 18.0657 1.02267C19.6478 1.70541 21.0244 2.63178 22.1953 3.80178C23.3663 4.97081 24.2931 6.34593 24.9759 7.92711C25.6586 9.5083 26 11.1978 26 12.9957C26 14.7926 25.6591 16.4826 24.9773 18.0657C24.2946 19.6478 23.3682 21.0244 22.1982 22.1953C21.0292 23.3663 19.6541 24.2931 18.0729 24.9759C16.4917 25.6586 14.8022 26 13.0043 26ZM8.08311 12.5551C8.90933 12.5551 9.61326 12.2667 10.1949 11.6899C10.7765 11.1131 11.1997 10.4212 11.4646 9.61422L10.231 9.30222C10.0548 9.83185 9.78852 10.2936 9.43222 10.6874C9.07593 11.0813 8.62622 11.2782 8.08311 11.2782C7.54096 11.2782 7.09174 11.0813 6.73544 10.6874C6.37915 10.2936 6.11289 9.83185 5.93667 9.30222L4.70311 9.61422C4.96793 10.4212 5.39115 11.1131 5.97278 11.6899C6.55344 12.2677 7.25689 12.5551 8.08311 12.5551ZM17.9169 12.5566C18.7431 12.5566 19.4466 12.2677 20.0272 11.6899C20.6089 11.1131 21.0326 10.4212 21.2983 9.61422L20.0633 9.30222C19.8881 9.83185 19.6218 10.2936 19.2646 10.6874C18.9083 11.0813 18.459 11.2782 17.9169 11.2782C17.3738 11.2782 16.9241 11.0813 16.5678 10.6874C16.2115 10.2936 15.9452 9.83185 15.769 9.30222L14.5354 9.61422C14.8003 10.4212 15.224 11.1131 15.8066 11.6899C16.3872 12.2677 17.0902 12.5566 17.9154 12.5566" fill="white"/>
</svg>