<svg xmlns="http://www.w3.org/2000/svg" width="260" height="150" viewBox="0 0 260 150" fill="none">
  <g clip-path="url(#clip0_67_1067)">
    <path d="M102.682 108.083C101.372 106.872 99.8396 105.719 98.0144 104.665C90.8023 100.501 80.679 98.5065 70.5426 99.1873C71.7132 93.3301 68.2578 87.4854 61.0501 83.324C54.6835 79.6482 45.993 77.647 36.947 77.7284C37.0901 72.5069 33.6152 67.4845 27.2508 63.81C25.9089 63.0353 24.4544 62.3607 22.9543 61.7474C30.6563 59.3407 40.268 59.4834 48.8783 61.7862C65.3617 66.1866 81.494 70.9851 97.5158 75.9124C132.837 61.4921 175.502 51.8202 215.926 66.6034C234.855 73.5269 217.695 91.0185 198.732 84.0825C173.469 74.8436 146.923 80.6182 124.224 89.3702C127.242 97.3125 117.097 106.469 102.682 108.083ZM184.423 94.1712C172.775 87.4466 153.89 87.4466 142.243 94.1712C130.595 100.896 130.595 111.799 142.243 118.524C153.89 125.248 172.775 125.248 184.423 118.524C196.07 111.799 196.07 100.896 184.423 94.1712Z" fill="#080A27"/>
  </g>
  <defs>
    <clipPath id="clip0_67_1067">
      <rect width="150" height="150" fill="white" transform="matrix(0.866025 0.5 -0.866025 0.5 129.904 0)"/>
    </clipPath>
  </defs>
</svg>