<svg xmlns="http://www.w3.org/2000/svg" width="25" height="25" viewBox="0 0 25 25" fill="none">
  <g clip-path="url(#clip0_67_1189)">
    <path d="M16.5876 18.2338L18.6384 8.56585C18.7221 8.15662 18.6733 7.86365 18.4919 7.68694C18.3105 7.51023 18.0711 7.47768 17.7734 7.58929L5.71987 12.2349C5.45015 12.3372 5.26646 12.4535 5.16881 12.5837C5.07115 12.7139 5.05952 12.8371 5.13393 12.9534C5.20833 13.0697 5.35714 13.1603 5.58036 13.2254L8.6635 14.1881L15.8203 9.68192C16.0156 9.55171 16.1644 9.52381 16.2667 9.59821C16.3318 9.64472 16.3132 9.71447 16.2109 9.80748L10.4213 15.0391L10.1981 18.2199C10.412 18.2199 10.6213 18.1176 10.8259 17.9129L12.3326 16.4621L15.4576 18.764C16.0528 19.0988 16.4295 18.9221 16.5876 18.2338ZM25 12.5C25 14.1927 24.6698 15.811 24.0095 17.3549C23.3491 18.8988 22.4609 20.2288 21.3449 21.3449C20.2288 22.4609 18.8988 23.3491 17.3549 24.0095C15.811 24.6698 14.1927 25 12.5 25C10.8073 25 9.18899 24.6698 7.64509 24.0095C6.10119 23.3491 4.77121 22.4609 3.65513 21.3449C2.53906 20.2288 1.65086 18.8988 0.990513 17.3549C0.330171 15.811 0 14.1927 0 12.5C0 10.8073 0.330171 9.18899 0.990513 7.64509C1.65086 6.10119 2.53906 4.77121 3.65513 3.65513C4.77121 2.53906 6.10119 1.65086 7.64509 0.990513C9.18899 0.330171 10.8073 0 12.5 0C14.1927 0 15.811 0.330171 17.3549 0.990513C18.8988 1.65086 20.2288 2.53906 21.3449 3.65513C22.4609 4.77121 23.3491 6.10119 24.0095 7.64509C24.6698 9.18899 25 10.8073 25 12.5Z" fill="white"/>
  </g>
  <defs>
    <clipPath id="clip0_67_1189">
      <rect width="25" height="25" fill="white"/>
    </clipPath>
  </defs>
</svg>