<svg width="28" height="28" viewBox="0 0 28 28" fill="none" xmlns="http://www.w3.org/2000/svg">
<g clip-path="url(#clip0_167_5486)">
<ellipse cx="15" cy="13.5" rx="14" ry="13.5" fill="url(#paint0_radial_167_5486)"/>
<path fill-rule="evenodd" clip-rule="evenodd" d="M15.1297 4.66666C19.8775 4.66666 23.7262 8.51531 23.7262 13.2631C23.7262 18.011 19.8775 21.8596 15.1297 21.8596C10.3819 21.8596 6.5332 18.011 6.5332 13.2631C6.5332 8.51531 10.3819 4.66666 15.1297 4.66666ZM15.1297 6.38595C13.3057 6.38595 11.5565 7.11051 10.2668 8.40024C8.97706 9.68996 8.2525 11.4392 8.2525 13.2631C8.2525 15.0871 8.97706 16.8363 10.2668 18.1261C11.5565 19.4158 13.3057 20.1403 15.1297 20.1403C16.9536 20.1403 18.7029 19.4158 19.9926 18.1261C21.2823 16.8363 22.0069 15.0871 22.0069 13.2631C22.0069 11.4392 21.2823 9.68996 19.9926 8.40024C18.7029 7.11051 16.9536 6.38595 15.1297 6.38595ZM13.9142 9.61566C14.2185 9.31151 14.6258 9.13253 15.0557 9.11407C15.4856 9.09561 15.9068 9.239 16.2361 9.51594L16.3452 9.61566L18.7772 12.0476C19.0813 12.352 19.2603 12.7593 19.2788 13.1892C19.2972 13.619 19.1538 14.0402 18.8769 14.3695L18.7772 14.4787L16.3452 16.9106C16.0409 17.2148 15.6336 17.3938 15.2037 17.4122C14.7738 17.4307 14.3526 17.2873 14.0233 17.0104L13.9142 16.9106L11.4822 14.4787C11.1781 14.1743 10.9991 13.767 10.9806 13.3371C10.9622 12.9073 11.1055 12.4861 11.3825 12.1568L11.4822 12.0476L13.9142 9.61566ZM15.1297 10.8321L12.6986 13.2631L15.1297 15.6942L17.5608 13.2631L15.1297 10.8321Z" fill="url(#paint1_linear_167_5486)"/>
</g>
<defs>
<radialGradient id="paint0_radial_167_5486" cx="0" cy="0" r="1" gradientUnits="userSpaceOnUse" gradientTransform="translate(15 13.5) rotate(90) scale(13.5 14)">
<stop stop-color="#413B79"/>
<stop offset="0.9999" stop-color="#737C98" stop-opacity="0"/>
<stop offset="1" stop-color="white" stop-opacity="0"/>
</radialGradient>
<linearGradient id="paint1_linear_167_5486" x1="15.1297" y1="4.66666" x2="15.1297" y2="21.8596" gradientUnits="userSpaceOnUse">
<stop stop-color="white"/>
<stop offset="1" stop-color="white"/>
</linearGradient>
<clipPath id="clip0_167_5486">
<rect width="28" height="28" fill="white"/>
</clipPath>
</defs>
</svg>
