<svg xmlns="http://www.w3.org/2000/svg" width="260" height="150" viewBox="0 0 260 150" fill="none">
  <path d="M194.657 37.3846C205.549 43.6731 205.535 53.9502 194.626 60.2484C183.718 66.5465 165.917 66.5544 155.025 60.266C144.133 53.9775 144.147 43.7004 155.056 37.4022C165.964 31.1041 183.765 31.0962 194.657 37.3846ZM88.4209 61.9122C89.9221 61.0455 91.8221 61.1024 93.2211 61.9101C94.6201 62.7178 94.6185 63.8725 93.2174 64.6814L37.673 96.75L92.1327 128.192L147.677 96.1237C149.178 95.257 151.078 95.3139 152.477 96.1216C153.976 96.987 153.875 98.084 152.473 98.893L96.9291 130.962L114.316 141L174.865 106.042C188.576 98.1264 188.593 85.3088 174.903 77.4049L169.907 74.5203L132.699 79.2713L148.014 68.4677L156.117 66.5588L145.624 60.5011L142.318 65.1792L123.306 73.9637L131.535 52.3665L125.739 49.0203C111.949 41.1743 89.7486 41.1841 76.1377 49.0424L15.5893 84L32.9765 94.0385L88.4209 61.9122Z" fill="#080A27"/>
</svg>