<svg width="180" height="180" viewBox="0 0 180 180" fill="none" xmlns="http://www.w3.org/2000/svg">
<path d="M90.4922 46.8281C102.569 46.8281 112.359 37.0379 112.359 24.9609C112.359 12.884 102.569 3.09375 90.4922 3.09375C78.4153 3.09375 68.625 12.884 68.625 24.9609C68.625 37.0379 78.4153 46.8281 90.4922 46.8281Z" fill="#FFF"/>
<path d="M171.844 126.141C171.562 125.719 171.211 125.367 170.859 125.016L146.039 101.953L130.008 67.5C125.648 58.7109 119.32 53.2266 109.898 53.2266H69.4688C59.9766 53.2266 53.7188 58.7109 49.3594 67.5L33.3281 101.953L8.50783 125.016C8.15626 125.367 7.8047 125.789 7.52345 126.141C4.9922 128.32 3.375 131.555 3.375 135.141C3.375 141.68 8.71877 147.023 15.2578 147.023C19.125 147.023 22.5 145.195 24.6797 142.312C24.8906 142.172 25.1016 141.961 25.2422 141.82L51.5391 117.352C52.5234 116.367 53.2969 115.242 53.8594 113.977L62.2266 96.0469L61.8047 127.688L25.1016 147.656C18.4219 151.312 15.2578 159.188 17.6485 166.43C20.0391 173.672 27.2109 178.172 34.7344 177.117L89.6484 162.914L144.563 177.117C152.086 178.172 159.328 173.672 161.648 166.43C164.039 159.188 160.875 151.312 154.195 147.656L117.492 127.617L117.07 95.9766L125.438 113.906C126 115.172 126.844 116.297 127.758 117.281L154.055 141.75C154.266 141.961 154.406 142.102 154.617 142.242C156.797 145.055 160.172 146.953 164.039 146.953C170.578 146.953 175.922 141.609 175.922 135.07C175.992 131.484 174.375 128.32 171.844 126.141Z" fill="#FFF"/>
</svg>
