<svg width="180" height="180" viewBox="0 0 180 180" fill="none" xmlns="http://www.w3.org/2000/svg">
<path d="M177.293 53.1616C174.611 50.3447 169.834 49.9743 166.631 52.3234L145.637 67.8313L135.983 46.7967C135.64 46.0071 135.119 45.3443 134.52 44.7595C132.547 40.8996 129.122 37.5855 124.4 35.6653C122.35 34.8465 120.233 34.4079 118.116 34.1935C117.65 33.979 117.229 33.6964 116.697 33.5501L79.754 24.4949C77.6813 23.9978 75.5975 24.3195 73.8905 25.1967C71.8621 25.8011 70.1219 27.0975 69.2906 28.9787L55.3802 60.4331C53.8728 63.8544 55.8014 67.7143 59.703 69.0594C63.5824 70.385 67.9827 68.6793 69.5012 65.2482L81.2503 38.687L98.0759 42.8003C97.6657 43.3851 97.2224 43.931 96.8899 44.5548L75.3204 85.6687C75.01 86.2731 74.8438 86.8871 74.6221 87.511L48.4084 126.159L4.53779 139.064C-0.427858 142.33 -1.48084 148.48 2.18797 152.847C5.87895 157.223 12.8951 158.149 17.8497 154.923L62.74 141.326C64.1144 140.448 65.112 139.298 65.8657 138.06C66.431 137.534 67.0738 137.115 67.5061 136.462L83.1346 113.419L110.878 134.21L81.1949 163.627C77.1049 167.682 77.515 173.93 82.1481 177.517C86.7701 181.133 93.8528 180.753 97.965 176.679L135.008 139.98C136.161 138.85 136.848 137.544 137.313 136.179C137.59 135.438 137.59 134.668 137.657 133.898C137.657 133.508 137.823 133.157 137.79 132.797C137.69 130.106 136.449 127.494 133.944 125.632L108.417 106.489C110.257 104.949 111.82 103.116 112.951 100.962L129.488 69.4688L134.786 81.8771C135.008 82.9785 135.429 84.0604 136.316 84.9669C137.114 85.8052 138.134 86.3608 139.22 86.7507C139.331 86.7994 139.464 86.8092 139.597 86.8384C140.284 87.0529 140.982 87.2575 141.703 87.2868C142.556 87.355 143.421 87.2575 144.296 87.0431C144.318 87.0334 144.329 87.0334 144.329 87.0334C144.562 86.9846 144.795 87.0236 145.028 86.9359C146.258 86.5265 147.2 85.8344 148.009 85.0254L178.136 62.5385C181.339 60.1699 179.987 55.9786 177.293 53.1616Z" fill="white"/>
<path d="M139.186 37.1371C150.848 37.1371 160.301 28.8236 160.301 18.5685C160.301 8.31341 150.848 0 139.186 0C127.525 0 118.071 8.31341 118.071 18.5685C118.071 28.8236 127.525 37.1371 139.186 37.1371Z" fill="white"/>
</svg>
